<svg viewBox="0 0 266.18 171.11" xmlns="http://www.w3.org/2000/svg"><g fill="#fff"><path d="m49.04 133.8-10.46 36.94h-4.12l-9.3-31.5-9.51 31.5-4.02.05-10.26-36.99h3.96l8.46 32.4 9.46-32.4h4.12l9.2 32.4 8.51-32.4z"/><path d="m61.99 168.71c-2.78-1.6-4.98-3.84-6.58-6.71s-2.4-6.12-2.4-9.75.8-6.88 2.4-9.75 3.8-5.11 6.58-6.71 5.88-2.4 9.3-2.4 6.57.8 9.35 2.4 4.97 3.84 6.55 6.71c1.59 2.87 2.38 6.12 2.38 9.75s-.79 6.88-2.38 9.75c-1.58 2.87-3.77 5.11-6.55 6.71s-5.9 2.4-9.35 2.4-6.52-.8-9.3-2.4zm16.7-2.72c2.18-1.27 3.91-3.09 5.18-5.47s1.9-5.13 1.9-8.27-.63-5.88-1.9-8.24-3-4.17-5.18-5.44c-2.19-1.27-4.65-1.9-7.4-1.9s-5.21.63-7.4 1.9c-2.18 1.27-3.91 3.08-5.18 5.44s-1.9 5.11-1.9 8.24.63 5.89 1.9 8.27 2.99 4.2 5.18 5.47c2.18 1.27 4.65 1.9 7.4 1.9s5.21-.63 7.4-1.9z"/><path d="m116.05 170.74-16.01-17.07v17.07h-3.7v-36.94h3.7v17.28l16.01-17.28h4.7l-17.28 18.44 17.44 18.5z"/><path d="m148.92 154.83c1.44 1.73 2.17 3.73 2.17 6.02 0 1.87-.47 3.55-1.4 5.05s-2.3 2.68-4.1 3.54-3.95 1.29-6.45 1.29h-12.79v-36.94h12.42c3.73 0 6.58.86 8.54 2.59s2.93 3.96 2.93 6.71c0 2.29-.62 4.15-1.85 5.58s-2.82 2.42-4.76 2.99c2.08.39 3.84 1.44 5.29 3.17zm-18.87-4.7h8.61c2.5 0 4.43-.59 5.79-1.77s2.03-2.81 2.03-4.89-.68-3.65-2.03-4.81c-1.36-1.16-3.34-1.74-5.95-1.74h-8.46v13.21zm15.09 15.59c1.5-1.27 2.25-3.01 2.25-5.23s-.78-3.99-2.35-5.31-3.67-1.98-6.32-1.98h-8.67v14.43h8.83c2.68 0 4.76-.63 6.26-1.9z"/><path d="m165.2 168.71c-2.78-1.6-4.98-3.84-6.58-6.71s-2.4-6.12-2.4-9.75.8-6.88 2.4-9.75 3.8-5.11 6.58-6.71 5.88-2.4 9.3-2.4 6.57.8 9.35 2.4 4.97 3.84 6.55 6.71c1.59 2.87 2.38 6.12 2.38 9.75s-.79 6.88-2.38 9.75c-1.58 2.87-3.77 5.11-6.55 6.71s-5.9 2.4-9.35 2.4-6.52-.8-9.3-2.4zm16.7-2.72c2.18-1.27 3.91-3.09 5.18-5.47s1.9-5.13 1.9-8.27-.63-5.88-1.9-8.24-3-4.17-5.18-5.44c-2.19-1.27-4.65-1.9-7.4-1.9s-5.21.63-7.4 1.9c-2.18 1.27-3.91 3.08-5.18 5.44s-1.9 5.11-1.9 8.24.63 5.89 1.9 8.27 2.99 4.2 5.18 5.47c2.18 1.27 4.65 1.9 7.4 1.9s5.21-.63 7.4-1.9z"/><path d="m206.84 168.71c-2.78-1.6-4.98-3.84-6.58-6.71s-2.4-6.12-2.4-9.75.8-6.88 2.4-9.75 3.8-5.11 6.58-6.71 5.88-2.4 9.3-2.4 6.57.8 9.35 2.4 4.97 3.84 6.55 6.71c1.59 2.87 2.38 6.12 2.38 9.75s-.79 6.88-2.38 9.75c-1.58 2.87-3.77 5.11-6.55 6.71s-5.9 2.4-9.35 2.4-6.52-.8-9.3-2.4zm16.7-2.72c2.18-1.27 3.91-3.09 5.18-5.47s1.9-5.13 1.9-8.27-.63-5.88-1.9-8.24-3-4.17-5.18-5.44c-2.19-1.27-4.65-1.9-7.4-1.9s-5.21.63-7.4 1.9c-2.18 1.27-3.91 3.08-5.18 5.44s-1.9 5.11-1.9 8.24.63 5.89 1.9 8.27 2.99 4.2 5.18 5.47c2.18 1.27 4.65 1.9 7.4 1.9s5.21-.63 7.4-1.9z"/><path d="m260.9 170.74-16.01-17.07v17.07h-3.7v-36.94h3.7v17.28l16.01-17.28h4.7l-17.28 18.44 17.44 18.5z"/></g><path d="m66.56 0v86.56c0 17.98-14.94 32.56-33.37 32.56-17.25 0-31.44-12.77-33.19-29.15v-89.97z" fill="#fff"/><path d="m144.22.01v86.56c0 17.98-14.94 32.56-33.37 32.56-17.25 0-31.44-12.77-33.19-29.15v-89.97z" fill="#fff"/><path d="m155.32.01h63.43c13.18 0 23.86 10.68 23.86 23.86 0 12.33-9.36 22.48-21.36 23.73h-65.92v-47.59z" fill="#fff"/><path d="m155.32 58.69h80.56c16.74 0 30.3 13.57 30.3 30.3 0 15.66-11.89 28.55-27.13 30.14h-83.73z" fill="#fff"/></svg>